<?xml version="1.0" encoding="UTF-8"?>
<!DOCTYPE svg PUBLIC "-//W3C//DTD SVG 1.1//EN" "http://www.w3.org/Graphics/SVG/1.1/DTD/svg11.dtd">
<!-- Creator: CorelDRAW 2018 (64-Bit Оценочная версия) -->
<svg xmlns="http://www.w3.org/2000/svg" xml:space="preserve" width="270.933mm" height="203.2mm" version="1.1" style="shape-rendering:geometricPrecision; text-rendering:geometricPrecision; image-rendering:optimizeQuality; fill-rule:evenodd; clip-rule:evenodd"
viewBox="0 0 27093.32 20320"
 xmlns:xlink="http://www.w3.org/1999/xlink">
 <defs>
  <style type="text/css">
   <![CDATA[
    .str7 {stroke:#A86281;stroke-width:52.91;stroke-miterlimit:22.9256}
    .str3 {stroke:#B0601E;stroke-width:52.91;stroke-miterlimit:22.9256}
    .str4 {stroke:#313269;stroke-width:52.91;stroke-miterlimit:22.9256}
    .str8 {stroke:#A2098F;stroke-width:52.91;stroke-miterlimit:22.9256}
    .str6 {stroke:#A86281;stroke-width:20;stroke-miterlimit:22.9256}
    .str1 {stroke:#B0601E;stroke-width:20;stroke-miterlimit:22.9256}
    .str0 {stroke:black;stroke-width:20;stroke-miterlimit:22.9256}
    .str5 {stroke:#3596E4;stroke-width:20;stroke-miterlimit:22.9256}
    .str2 {stroke:black;stroke-width:20;stroke-miterlimit:22.9256}
    .fil0 {fill:none}
    .fil5 {fill:#C97274}
    .fil1 {fill:#7688A1}
    .fil4 {fill:#4A8DC3}
    .fil3 {fill:black}
    .fil7 {fill:#3596E4}
    .fil8 {fill:yellow}
    .fil2 {fill:url(#id21)}
    .fil6 {fill:url(#id22)}
   ]]>
  </style>
    <clipPath id="id0">
     <path d="M6230.93 11999.3c987.38,-586.21 1975.36,-1172.43 2962.74,-1758.65 987.38,-586.21 1975.95,-1173.38 2963.93,-1760.54 -18.97,-977.98 -37.64,-1957.83 -56.31,-2936.74 -18.66,-978.9 -37.34,-1958.76 -55.71,-2938.62 -960.71,414.3 -1921.65,827.16 -2881.55,1240.09 -959.73,412.85 -1920.24,825.78 -2879.76,1239.14 -8.89,1153.65 -17.78,2306.37 -26.67,3459.07 -8.88,1151.77 -17.78,2304.48 -26.67,3456.25z"/>
    </clipPath>
    <clipPath id="id1">
     <path d="M12128.59 6950.97c1075.87,-238.43 2152.49,-477.3 3228.28,-716.13 1075.95,-238.86 2153.06,-478.55 3229.59,-717.83 17.73,1050.26 35.44,2100.52 53.17,3149.91 17.71,1048.54 35.45,2098.8 53.18,3147.34 -1058.81,375.15 -2118.38,750.03 -3175.77,1124.6 -1058.25,374.87 -2116.97,749.45 -3174.46,1123.74 -36.1,-1184.41 -71.22,-2369.71 -107,-3554.96 -35.76,-1184.43 -71.55,-2370.55 -106.99,-3556.67z"/>
    </clipPath>
    <clipPath id="id2">
     <path d="M10884.26 1877.13l8702.99 0 1349.09 8004.39 -8702.99 0 -1349.09 -8004.39z"/>
    </clipPath>
    <clipPath id="id3">
     <path d="M14840.75 6349.41c558.52,606.82 899.18,1414.46 899.18,2301.04 0,543.55 -128.04,1057.42 -355.83,1513.54 -562.18,1125.68 -1731.89,1899.58 -3083.76,1899.58 -5.83,0 -11.66,-0.01 -17.48,-0.04 20.04,666.43 40.04,1332.89 59.92,1999 1057.43,-374.27 2116.08,-748.82 3174.26,-1123.67 1042.8,-369.4 2087.72,-739.1 3131.93,-1109.07 14.41,-5.1 28.81,-10.21 43.22,-15.31 0.21,-0.07 0.41,-0.15 0.62,-0.22 -17.73,-1048.54 -35.47,-2098.8 -53.18,-3147.34 -17.73,-1049.39 -35.44,-2099.65 -53.17,-3149.91 -6.59,1.47 -13.18,2.93 -19.77,4.4 -1069.95,237.82 -2140.46,476.03 -3209.82,713.43 -172.02,38.19 -344.06,76.38 -516.12,114.57z"/>
    </clipPath>
     <clipPath id="id4">
      <path d="M18573.58 5533.35c-1.34,0.3 -2.69,0.6 -4.04,0.9 -1069.94,237.82 -2139.82,475.88 -3209.82,713.43 -164.64,36.55 -329.28,73.1 -493.92,109.64 572.02,629.72 887.28,1441.35 887.28,2293.13 0,528.41 -121.09,1046.6 -357.22,1519.42 -584.81,1171.01 -1784.39,1906.85 -3095.52,1906.85 -1.31,0 -2.62,0 -3.93,-0.01 19.72,655.8 39.4,1311.6 58.98,1967.41 1052.43,-372.5 2104.92,-744.87 3157.26,-1117.66 1043.94,-369.8 2088.01,-739.2 3131.93,-1109.07 11.5,-4.07 22.99,-8.14 34.92,-12.36 -17.68,-1045.97 -35.35,-2091.93 -53.02,-3137.89 -17.64,-1044.6 -35.26,-2089.19 -52.9,-3133.79z"/>
     </clipPath>
    <clipPath id="id5">
     <path d="M6218.75 3915.46l18.66 1657.66 0 10889.8 -18.66 -1657.66 0 -10889.8z"/>
    </clipPath>
   <clipPath id="id6">
    <path d="M6257.21 5040.31c977.9,316.69 1956.44,633.29 2934.92,950.05 977.92,316.59 1957.02,633.37 2936.15,950.05 36.06,1187.33 71.82,2375.58 107.57,3562 35.75,1186.43 71.51,2373.76 106.96,3560.19 -1018.86,-344.65 -2038.33,-688.4 -3056.56,-1032.14 -1018.24,-343.74 -2037.09,-687.5 -3055.32,-1031.25 4.27,-1158.46 8.55,-2318.74 12.83,-3478.1 4.27,-1159.36 8.56,-2320.53 13.45,-3480.8z"/>
   </clipPath>
     <clipPath id="id7">
      <path d="M6231.03 11999.24c987.34,-586.19 1975.29,-1172.39 2962.64,-1758.59 987.38,-586.21 1975.95,-1173.38 2963.93,-1760.54 -9.95,-512.89 -19.81,-1026.29 -29.64,-1539.8 -979.02,-316.65 -1958.02,-633.39 -2935.83,-949.95 -954.03,-308.84 -1908.11,-617.54 -2861.6,-926.31l-46.26 19.93c-8.89,1153.65 -17.78,2306.37 -26.67,3459.07l-26.67 3456.16 0.1 0.03z"/>
     </clipPath>
     <clipPath id="id8">
      <path d="M6257.21 5040.31c977.9,316.69 1956.44,633.29 2934.92,950.05 977.92,316.59 1957.02,633.37 2936.15,950.05 36.06,1187.33 71.82,2375.58 107.57,3562 35.75,1186.43 71.51,2373.76 106.96,3560.19 -1018.86,-344.65 -2038.33,-688.4 -3056.56,-1032.14 -1018.24,-343.74 -2037.09,-687.5 -3055.32,-1031.25 4.27,-1158.46 8.55,-2318.74 12.83,-3478.1 4.27,-1159.36 8.56,-2320.53 13.45,-3480.8z"/>
     </clipPath>
     <clipPath id="id9">
      <path d="M12128.59 6950.97l0.01 0c35.95,1183.81 71.61,2368.54 107.25,3551.44 35.75,1186.4 71.51,2373.71 106.96,3560.11l-0.12 0.04 -0.11 -0.04c-36.1,-1184.38 -71.22,-2369.66 -107,-3554.88 -35.76,-1184.43 -71.55,-2370.55 -106.99,-3556.67z"/>
     </clipPath>
     <clipPath id="id10">
      <path d="M6257.21 5040.31c977.9,316.69 1956.44,633.29 2934.92,950.05 977.92,316.59 1957.02,633.37 2936.15,950.05 36.06,1187.33 71.82,2375.58 107.57,3562 35.75,1186.43 71.51,2373.76 106.96,3560.19 -1018.86,-344.65 -2038.33,-688.4 -3056.56,-1032.14 -1018.24,-343.74 -2037.09,-687.5 -3055.32,-1031.25 4.27,-1158.46 8.55,-2318.74 12.83,-3478.1 4.27,-1159.36 8.56,-2320.53 13.45,-3480.8z"/>
     </clipPath>
     <clipPath id="id11">
      <path d="M12213.61 9764.41l-498.49 -2957.63 413.16 133.63c28.59,941.21 56.98,1883 85.33,2824z"/>
     </clipPath>
     <clipPath id="id12">
      <path d="M6257.21 5040.31c977.9,316.69 1956.44,633.29 2934.92,950.05 977.92,316.59 1957.02,633.37 2936.15,950.05 36.06,1187.33 71.82,2375.58 107.57,3562 35.75,1186.43 71.51,2373.76 106.96,3560.19 -1018.86,-344.65 -2038.33,-688.4 -3056.56,-1032.14 -1018.24,-343.74 -2037.09,-687.5 -3055.32,-1031.25 4.27,-1158.46 8.55,-2318.74 12.83,-3478.1 4.27,-1159.36 8.56,-2320.53 13.45,-3480.8z"/>
     </clipPath>
     <clipPath id="id13">
      <path d="M12311.25 13008.64c10.54,351.36 21.06,702.68 31.53,1053.89l0.03 -0.01 -31.56 -1053.88z"/>
     </clipPath>
     <clipPath id="id14">
      <path d="M6257.21 5040.31c977.9,316.69 1956.44,633.29 2934.92,950.05 977.92,316.59 1957.02,633.37 2936.15,950.05 36.06,1187.33 71.82,2375.58 107.57,3562 35.75,1186.43 71.51,2373.76 106.96,3560.19 -1018.86,-344.65 -2038.33,-688.4 -3056.56,-1032.14 -1018.24,-343.74 -2037.09,-687.5 -3055.32,-1031.25 4.27,-1158.46 8.55,-2318.74 12.83,-3478.1 4.27,-1159.36 8.56,-2320.53 13.45,-3480.8z"/>
     </clipPath>
      <clipPath id="id15">
      </clipPath>
      <clipPath id="id16">
       <path d="M6257.21 5040.31c977.9,316.69 1956.44,633.29 2934.92,950.05 977.92,316.59 1957.02,633.37 2936.15,950.05 36.06,1187.33 71.82,2375.58 107.57,3562 35.75,1186.43 71.51,2373.76 106.96,3560.19 -1018.86,-344.65 -2038.33,-688.4 -3056.56,-1032.14 -1018.24,-343.74 -2037.09,-687.5 -3055.32,-1031.25 4.27,-1158.46 8.55,-2318.74 12.83,-3478.1 4.27,-1159.36 8.56,-2320.53 13.45,-3480.8z"/>
      </clipPath>
     <clipPath id="id17">
      <path d="M6237.41 10241.47l0 1759.93 -6.48 -2.19 6.48 -1757.74z"/>
     </clipPath>
     <clipPath id="id18">
      <path d="M6257.21 5040.31c977.9,316.69 1956.44,633.29 2934.92,950.05 977.92,316.59 1957.02,633.37 2936.15,950.05 36.06,1187.33 71.82,2375.58 107.57,3562 35.75,1186.43 71.51,2373.76 106.96,3560.19 -1018.86,-344.65 -2038.33,-688.4 -3056.56,-1032.14 -1018.24,-343.74 -2037.09,-687.5 -3055.32,-1031.25 4.27,-1158.46 8.55,-2318.74 12.83,-3478.1 4.27,-1159.36 8.56,-2320.53 13.45,-3480.8z"/>
     </clipPath>
   <mask id="id19">
  <linearGradient id="id20" gradientUnits="userSpaceOnUse" x1="12086.13" y1="6962.78" x2="12214.14" y2="11217.89">
   <stop offset="0" style="stop-opacity:1; stop-color:white"/>
   <stop offset="1" style="stop-opacity:0; stop-color:white"/>
  </linearGradient>
    <rect style="fill:url(#id20)" x="8850.76" y="5227.33" width="6899.17" height="6846.24"/>
   </mask>
  <linearGradient id="id21" gradientUnits="userSpaceOnUse" x1="13230.01" y1="5363.46" x2="18613.1" y2="5581.68">
   <stop offset="0" style="stop-opacity:1; stop-color:#D14D4D"/>
   <stop offset="1" style="stop-opacity:1; stop-color:white"/>
  </linearGradient>
  <linearGradient id="id22" gradientUnits="userSpaceOnUse" x1="13230.01" y1="5363.46" x2="18613.1" y2="5581.68">
   <stop offset="0" style="stop-opacity:1; stop-color:#E34A37"/>
   <stop offset="0.0509804" style="stop-opacity:1; stop-color:#EC5325"/>
   <stop offset="0.101961" style="stop-opacity:1; stop-color:#F75E0E"/>
   <stop offset="0.14902" style="stop-opacity:1; stop-color:#FF6C00"/>
   <stop offset="0.2" style="stop-opacity:1; stop-color:#FF8500"/>
   <stop offset="0.25098" style="stop-opacity:1; stop-color:#FF9D00"/>
   <stop offset="0.301961" style="stop-opacity:1; stop-color:#FFB500"/>
   <stop offset="0.34902" style="stop-opacity:1; stop-color:#FFCE00"/>
   <stop offset="0.4" style="stop-opacity:1; stop-color:#FFE600"/>
   <stop offset="0.45098" style="stop-opacity:1; stop-color:yellow"/>
   <stop offset="0.501961" style="stop-opacity:1; stop-color:#FFFF59"/>
   <stop offset="0.54902" style="stop-opacity:1; stop-color:#FFFFB2"/>
   <stop offset="0.6" style="stop-opacity:1; stop-color:white"/>
   <stop offset="0.65098" style="stop-opacity:1; stop-color:#C5F3FF"/>
   <stop offset="0.701961" style="stop-opacity:1; stop-color:#8BE7FF"/>
   <stop offset="0.74902" style="stop-opacity:1; stop-color:#4ADAFF"/>
   <stop offset="0.8" style="stop-opacity:1; stop-color:#10CFFF"/>
   <stop offset="0.85098" style="stop-opacity:1; stop-color:#0AC1F9"/>
   <stop offset="0.901961" style="stop-opacity:1; stop-color:#20ABEE"/>
   <stop offset="1" style="stop-opacity:1; stop-color:#3399E5"/>
  </linearGradient>
 </defs>
 <g id="Слой_x0020_1">
  <metadata id="CorelCorpID_0Corel-Layer"/>
  <g>
   <g style="clip-path:url(#id0)">
    <image x="6230.93" y="2604.75" width="5926.67" height="9394.55" xlink:href="Безымянный-5_Images\Безымянный-5_ImgID1.png"/>
   </g>
   <path class="fil0 str0" d="M6230.93 11999.3c987.38,-586.21 1975.36,-1172.43 2962.74,-1758.65 987.38,-586.21 1975.95,-1173.38 2963.93,-1760.54 -18.97,-977.98 -37.64,-1957.83 -56.31,-2936.74 -18.66,-978.9 -37.34,-1958.76 -55.71,-2938.62 -960.71,414.3 -1921.65,827.16 -2881.55,1240.09 -959.73,412.85 -1920.24,825.78 -2879.76,1239.14 -8.89,1153.65 -17.78,2306.37 -26.67,3459.07 -8.88,1151.77 -17.78,2304.48 -26.67,3456.25z"/>
  </g>
  <g>
   <g style="clip-path:url(#id1)">
    <image x="12128.59" y="5517.01" width="6564.22" height="8545.59" xlink:href="Безымянный-5_Images\Безымянный-5_ImgID2.png"/>
   </g>
   <path class="fil0 str0" d="M12128.59 6950.97c1075.87,-238.43 2152.49,-477.3 3228.28,-716.13 1075.95,-238.86 2153.06,-478.55 3229.59,-717.83 17.73,1050.26 35.44,2100.52 53.17,3149.91 17.71,1048.54 35.45,2098.8 53.18,3147.34 -1058.81,375.15 -2118.38,750.03 -3175.77,1124.6 -1058.25,374.87 -2116.97,749.45 -3174.46,1123.74 -36.1,-1184.41 -71.22,-2369.71 -107,-3554.96 -35.76,-1184.43 -71.55,-2370.55 -106.99,-3556.67z"/>
  </g>
  <path class="fil1 str1" d="M15356.87 6234.84c-172.02,38.19 -344.06,76.38 -516.12,114.57 558.52,606.82 899.18,1414.46 899.18,2301.04 0,543.55 -128.04,1057.42 -355.83,1513.54 -562.18,1125.68 -1731.89,1899.58 -3083.76,1899.58 -5.83,0 -11.66,-0.01 -17.48,-0.04 20.04,666.43 40.04,1332.89 59.92,1999 1057.43,-374.27 2116.08,-748.82 3174.26,-1123.67 1042.8,-369.4 2087.72,-739.1 3131.93,-1109.07 14.41,-5.1 28.81,-10.21 43.22,-15.31 0.21,-0.07 0.41,-0.15 0.62,-0.22 -17.73,-1048.54 -35.47,-2098.8 -53.18,-3147.34 -17.73,-1049.39 -35.44,-2099.65 -53.17,-3149.91 -6.59,1.47 -13.18,2.93 -19.77,4.4 -1069.95,237.82 -2140.46,476.03 -3209.82,713.43z"/>
  <path class="fil1 str1" d="M14840.75 6349.41c558.52,606.82 899.18,1414.46 899.18,2301.04 0,543.55 -128.04,1057.42 -355.83,1513.54 -562.18,1125.68 -1731.89,1899.58 -3083.76,1899.58 -5.83,0 -11.66,-0.01 -17.48,-0.04 20.04,666.43 40.04,1332.89 59.92,1999 1057.43,-374.27 2116.08,-748.82 3174.26,-1123.67 1042.8,-369.4 2087.72,-739.1 3131.93,-1109.07 14.41,-5.1 28.81,-10.21 43.22,-15.31 0.21,-0.07 0.41,-0.15 0.62,-0.22 -17.73,-1048.54 -35.47,-2098.8 -53.18,-3147.34 -17.73,-1049.39 -35.44,-2099.65 -53.17,-3149.91 -6.59,1.47 -13.18,2.93 -19.77,4.4 -1069.95,237.82 -2140.46,476.03 -3209.82,713.43 -172.02,38.19 -344.06,76.38 -516.12,114.57z"/>
  <path class="fil1 str1" d="M14840.75 6349.41c558.52,606.82 899.18,1414.46 899.18,2301.04 0,543.55 -128.04,1057.42 -355.83,1513.54 -562.18,1125.68 -1731.89,1899.58 -3083.76,1899.58 -5.83,0 -11.66,-0.01 -17.48,-0.04 20.04,666.43 40.04,1332.89 59.92,1999 1057.43,-374.27 2116.08,-748.82 3174.26,-1123.67 1042.8,-369.4 2087.72,-739.1 3131.93,-1109.07 14.41,-5.1 28.81,-10.21 43.22,-15.31 0.21,-0.07 0.41,-0.15 0.62,-0.22 -17.73,-1048.54 -35.47,-2098.8 -53.18,-3147.34 -17.73,-1049.39 -35.44,-2099.65 -53.17,-3149.91 -6.59,1.47 -13.18,2.93 -19.77,4.4 -1069.95,237.82 -2140.46,476.03 -3209.82,713.43 -172.02,38.19 -344.06,76.38 -516.12,114.57z"/>
  <g>
   <g style="clip-path:url(#id2)">
    <image x="10884.26" y="1877.13" width="10052.08" height="8004.39" xlink:href="Безымянный-5_Images\Безымянный-5_ImgID3.png"/>
   </g>
  </g>
  <path class="fil2 str2" d="M12018.76 2604.75c1093.87,487.35 2188.42,975.62 3282.29,1462.95 1093.87,487.33 2189.09,974.67 3284.3,1462.01 18.02,1054.21 36.05,2109.34 54.06,3162.62 18.01,1053.27 36.04,2106.55 53.4,3159.83 -1094.55,-558.54 -2188.91,-1117.45 -3282.3,-1674.71 -1093.02,-557.05 -2187.09,-1115.23 -3280.3,-1671.93 -18.69,-983 -37.38,-1966.01 -56.06,-2948.99 -18.69,-982.99 -37.38,-1967.85 -55.39,-2951.78z"/>
  <g>
   <path class="fil3" d="M15484.83 7426.51c-153.99,-394.08 -380.22,-752.51 -662.51,-1059.22l-31 -33.67 560.87 -124.51c723.04,-160.51 1446.64,-321.42 2170.2,-482.3l1090.87 -242.53c36.01,2116.17 71.5,4232.35 107.22,6348.53 -1064.27,377.76 -2129.11,753.99 -3193.66,1130.95 -798.35,282.8 -1596.99,565.46 -2395.15,847.93l-813.15 287.78 -61.82 -2062.36 44.64 0.11 0 -0.11c659.82,0 1275.78,-185.66 1797.7,-507.16 539.56,-332.35 978.84,-809.95 1262.4,-1377.74 114.67,-229.61 203.87,-473.94 263.89,-729.26 58.3,-248.01 89.14,-506.64 89.14,-772.5 0,-431.7 -81.35,-844.45 -229.64,-1223.94z"/>
  </g>
  <g>
   <g style="clip-path:url(#id3)">
    <image x="12282.86" y="5517.01" width="6409.95" height="8545.52" xlink:href="Безымянный-5_Images\Безымянный-5_ImgID4.png"/>
   </g>
   <path class="fil0 str3" d="M14840.75 6349.41c558.52,606.82 899.18,1414.46 899.18,2301.04 0,543.55 -128.04,1057.42 -355.83,1513.54 -562.18,1125.68 -1731.89,1899.58 -3083.76,1899.58 -5.83,0 -11.66,-0.01 -17.48,-0.04 20.04,666.43 40.04,1332.89 59.92,1999 1057.43,-374.27 2116.08,-748.82 3174.26,-1123.67 1042.8,-369.4 2087.72,-739.1 3131.93,-1109.07 14.41,-5.1 28.81,-10.21 43.22,-15.31 0.21,-0.07 0.41,-0.15 0.62,-0.22 -17.73,-1048.54 -35.47,-2098.8 -53.18,-3147.34 -17.73,-1049.39 -35.44,-2099.65 -53.17,-3149.91 -6.59,1.47 -13.18,2.93 -19.77,4.4 -1069.95,237.82 -2140.46,476.03 -3209.82,713.43 -172.02,38.19 -344.06,76.38 -516.12,114.57z"/>
  </g>
  <g>
   <g>
    <g style="clip-path:url(#id4)">
     <image x="12296.41" y="5533.35" width="6383.09" height="8510.77" xlink:href="Безымянный-5_Images\Безымянный-5_ImgID5.png"/>
    </g>
    <path class="fil0 str4" d="M18573.58 5533.35c-1.34,0.3 -2.69,0.6 -4.04,0.9 -1069.94,237.82 -2139.82,475.88 -3209.82,713.43 -164.64,36.55 -329.28,73.1 -493.92,109.64 572.02,629.72 887.28,1441.35 887.28,2293.13 0,528.41 -121.09,1046.6 -357.22,1519.42 -584.81,1171.01 -1784.39,1906.85 -3095.52,1906.85 -1.31,0 -2.62,0 -3.93,-0.01 19.72,655.8 39.4,1311.6 58.98,1967.41 1052.43,-372.5 2104.92,-744.87 3157.26,-1117.66 1043.94,-369.8 2088.01,-739.2 3131.93,-1109.07 11.5,-4.07 22.99,-8.14 34.92,-12.36 -17.68,-1045.97 -35.35,-2091.93 -53.02,-3137.89 -17.64,-1044.6 -35.26,-2089.19 -52.9,-3133.79z"/>
   </g>
  </g>
  <g>
   <g style="clip-path:url(#id5)">
    <image x="6218.75" y="3915.46" width="18.66" height="12547.46" xlink:href="Безымянный-5_Images\Безымянный-5_ImgID6.png"/>
   </g>
  </g>
  <g style="clip-path:url(#id6)">
   <polygon class="fil4" points="3690.93,2500.31 14882.81,2500.31 14882.81,16602.6 3690.93,16602.6 "/>
   <g id="Слой_x0020_1_0">
    <metadata id="CorelCorpID_1Corel-Layer"/>
    <g>
    </g>
    <g style="clip-path:url(#id7)">
     <image x="6230.93" y="2604.75" width="5926.67" height="9394.55" xlink:href="Безымянный-5_Images\Безымянный-5_ImgID7.png"/>
    </g>
    <g style="clip-path:url(#id8)">
     <path id="1" class="fil0 str5" d="M6230.93 11999.3c987.38,-586.21 1975.36,-1172.43 2962.74,-1758.65 987.38,-586.21 1975.95,-1173.38 2963.93,-1760.54 -18.97,-977.98 -37.64,-1957.83 -56.31,-2936.74 -18.66,-978.9 -37.34,-1958.76 -55.71,-2938.62 -960.71,414.3 -1921.65,827.16 -2881.55,1240.09 -959.73,412.85 -1920.24,825.78 -2879.76,1239.14 -8.89,1153.65 -17.78,2306.37 -26.67,3459.07 -8.88,1151.77 -17.78,2304.48 -26.67,3456.25z"/>
    </g>
    <g>
    </g>
    <g style="clip-path:url(#id9)">
     <image x="12128.59" y="5517.01" width="6564.22" height="8545.59" xlink:href="Безымянный-5_Images\Безымянный-5_ImgID8.png"/>
    </g>
    <g style="clip-path:url(#id10)">
     <path class="fil0 str5" d="M12128.59 6950.97c1075.87,-238.43 2152.49,-477.3 3228.28,-716.13 1075.95,-238.86 2153.06,-478.55 3229.59,-717.83 17.73,1050.26 35.44,2100.52 53.17,3149.91 17.71,1048.54 35.45,2098.8 53.18,3147.34 -1058.81,375.15 -2118.38,750.03 -3175.77,1124.6 -1058.25,374.87 -2116.97,749.45 -3174.46,1123.74 -36.1,-1184.41 -71.22,-2369.71 -107,-3554.96 -35.76,-1184.43 -71.55,-2370.55 -106.99,-3556.67z"/>
    </g>
    <path class="fil5 str6" d="M15356.87 6234.84c-172.02,38.19 -344.06,76.38 -516.12,114.57 558.52,606.82 899.18,1414.46 899.18,2301.04 0,543.55 -128.04,1057.42 -355.83,1513.54 -562.18,1125.68 -1731.89,1899.58 -3083.76,1899.58 -5.83,0 -11.66,-0.01 -17.48,-0.04 20.04,666.43 40.04,1332.89 59.92,1999 1057.43,-374.27 2116.08,-748.82 3174.26,-1123.67 1042.8,-369.4 2087.72,-739.1 3131.93,-1109.07 14.41,-5.1 28.81,-10.21 43.22,-15.31 0.21,-0.07 0.41,-0.15 0.62,-0.22 -17.73,-1048.54 -35.47,-2098.8 -53.18,-3147.34 -17.73,-1049.39 -35.44,-2099.65 -53.17,-3149.91 -6.59,1.47 -13.18,2.93 -19.77,4.4 -1069.95,237.82 -2140.46,476.03 -3209.82,713.43z"/>
    <path class="fil5 str6" d="M14840.75 6349.41c558.52,606.82 899.18,1414.46 899.18,2301.04 0,543.55 -128.04,1057.42 -355.83,1513.54 -562.18,1125.68 -1731.89,1899.58 -3083.76,1899.58 -5.83,0 -11.66,-0.01 -17.48,-0.04 20.04,666.43 40.04,1332.89 59.92,1999 1057.43,-374.27 2116.08,-748.82 3174.26,-1123.67 1042.8,-369.4 2087.72,-739.1 3131.93,-1109.07 14.41,-5.1 28.81,-10.21 43.22,-15.31 0.21,-0.07 0.41,-0.15 0.62,-0.22 -17.73,-1048.54 -35.47,-2098.8 -53.18,-3147.34 -17.73,-1049.39 -35.44,-2099.65 -53.17,-3149.91 -6.59,1.47 -13.18,2.93 -19.77,4.4 -1069.95,237.82 -2140.46,476.03 -3209.82,713.43 -172.02,38.19 -344.06,76.38 -516.12,114.57z"/>
    <path class="fil5 str6" d="M14840.75 6349.41c558.52,606.82 899.18,1414.46 899.18,2301.04 0,543.55 -128.04,1057.42 -355.83,1513.54 -562.18,1125.68 -1731.89,1899.58 -3083.76,1899.58 -5.83,0 -11.66,-0.01 -17.48,-0.04 20.04,666.43 40.04,1332.89 59.92,1999 1057.43,-374.27 2116.08,-748.82 3174.26,-1123.67 1042.8,-369.4 2087.72,-739.1 3131.93,-1109.07 14.41,-5.1 28.81,-10.21 43.22,-15.31 0.21,-0.07 0.41,-0.15 0.62,-0.22 -17.73,-1048.54 -35.47,-2098.8 -53.18,-3147.34 -17.73,-1049.39 -35.44,-2099.65 -53.17,-3149.91 -6.59,1.47 -13.18,2.93 -19.77,4.4 -1069.95,237.82 -2140.46,476.03 -3209.82,713.43 -172.02,38.19 -344.06,76.38 -516.12,114.57z"/>
    <g>
    </g>
    <g style="clip-path:url(#id11)">
     <image x="10884.26" y="1877.13" width="10052.08" height="8004.39" xlink:href="Безымянный-5_Images\Безымянный-5_ImgID9.png"/>
    </g>
    <g style="clip-path:url(#id12)">
    </g>
    <path class="fil6 str5" d="M12018.76 2604.75c1093.87,487.35 2188.42,975.62 3282.29,1462.95 1093.87,487.33 2189.09,974.67 3284.3,1462.01 18.02,1054.21 36.05,2109.34 54.06,3162.62 18.01,1053.27 36.04,2106.55 53.4,3159.83 -1094.55,-558.54 -2188.91,-1117.45 -3282.3,-1674.71 -1093.02,-557.05 -2187.09,-1115.23 -3280.3,-1671.93 -18.69,-983 -37.38,-1966.01 -56.06,-2948.99 -18.69,-982.99 -37.38,-1967.85 -55.39,-2951.78z"/>
    <g>
     <path class="fil7" d="M15484.83 7426.51c-153.99,-394.08 -380.22,-752.51 -662.51,-1059.22l-31 -33.67 560.87 -124.51c723.04,-160.51 1446.64,-321.42 2170.2,-482.3l1090.87 -242.53c36.01,2116.17 71.5,4232.35 107.22,6348.53 -1064.27,377.76 -2129.11,753.99 -3193.66,1130.95 -798.35,282.8 -1596.99,565.46 -2395.15,847.93l-813.15 287.78 -61.82 -2062.36 44.64 0.11 0 -0.11c659.82,0 1275.78,-185.66 1797.7,-507.16 539.56,-332.35 978.84,-809.95 1262.4,-1377.74 114.67,-229.61 203.87,-473.94 263.89,-729.26 58.3,-248.01 89.14,-506.64 89.14,-772.5 0,-431.7 -81.35,-844.45 -229.64,-1223.94z"/>
    </g>
    <g>
    </g>
    <g style="clip-path:url(#id13)">
     <image x="12282.86" y="5517.01" width="6409.95" height="8545.52" xlink:href="Безымянный-5_Images\Безымянный-5_ImgID10.png"/>
    </g>
    <g style="clip-path:url(#id14)">
     <path class="fil0 str7" d="M14840.75 6349.41c558.52,606.82 899.18,1414.46 899.18,2301.04 0,543.55 -128.04,1057.42 -355.83,1513.54 -562.18,1125.68 -1731.89,1899.58 -3083.76,1899.58 -5.83,0 -11.66,-0.01 -17.48,-0.04 20.04,666.43 40.04,1332.89 59.92,1999 1057.43,-374.27 2116.08,-748.82 3174.26,-1123.67 1042.8,-369.4 2087.72,-739.1 3131.93,-1109.07 14.41,-5.1 28.81,-10.21 43.22,-15.31 0.21,-0.07 0.41,-0.15 0.62,-0.22 -17.73,-1048.54 -35.47,-2098.8 -53.18,-3147.34 -17.73,-1049.39 -35.44,-2099.65 -53.17,-3149.91 -6.59,1.47 -13.18,2.93 -19.77,4.4 -1069.95,237.82 -2140.46,476.03 -3209.82,713.43 -172.02,38.19 -344.06,76.38 -516.12,114.57z"/>
    </g>
    <g>
     <g>
     </g>
     <g style="clip-path:url(#id15)">
      <image x="12296.41" y="5533.35" width="6383.09" height="8510.77" xlink:href="Безымянный-5_Images\Безымянный-5_ImgID11.png"/>
     </g>
     <g style="clip-path:url(#id16)">
      <path class="fil0 str8" d="M18573.58 5533.35c-1.34,0.3 -2.69,0.6 -4.04,0.9 -1069.94,237.82 -2139.82,475.88 -3209.82,713.43 -164.64,36.55 -329.28,73.1 -493.92,109.64 572.02,629.72 887.28,1441.35 887.28,2293.13 0,528.41 -121.09,1046.6 -357.22,1519.42 -584.81,1171.01 -1784.39,1906.85 -3095.52,1906.85 -1.31,0 -2.62,0 -3.93,-0.01 19.72,655.8 39.4,1311.6 58.98,1967.41 1052.43,-372.5 2104.92,-744.87 3157.26,-1117.66 1043.94,-369.8 2088.01,-739.2 3131.93,-1109.07 11.5,-4.07 22.99,-8.14 34.92,-12.36 -17.68,-1045.97 -35.35,-2091.93 -53.02,-3137.89 -17.64,-1044.6 -35.26,-2089.19 -52.9,-3133.79z"/>
     </g>
    </g>
    <g>
    </g>
    <g style="clip-path:url(#id17)">
     <image x="6218.75" y="3915.46" width="18.66" height="12547.46" xlink:href="Безымянный-5_Images\Безымянный-5_ImgID12.png"/>
    </g>
    <g style="clip-path:url(#id18)">
    </g>
   </g>
  </g>
  <path class="fil0 str2" d="M6257.21 5040.31c977.9,316.69 1956.44,633.29 2934.92,950.05 977.92,316.59 1957.02,633.37 2936.15,950.05 36.06,1187.33 71.82,2375.58 107.57,3562 35.75,1186.43 71.51,2373.76 106.96,3560.19 -1018.86,-344.65 -2038.33,-688.4 -3056.56,-1032.14 -1018.24,-343.74 -2037.09,-687.5 -3055.32,-1031.25 4.27,-1158.46 8.55,-2318.74 12.83,-3478.1 4.27,-1159.36 8.56,-2320.53 13.45,-3480.8z"/>
  <path class="fil8 str2" style="mask:url(#id19)" d="M12300.34 5237.33c1899.63,0 3439.59,1528.11 3439.59,3413.12 0,1885.01 -1539.96,3413.12 -3439.59,3413.12 -1899.62,0 -3439.58,-1528.11 -3439.58,-3413.12 0,-1885.01 1539.96,-3413.12 3439.58,-3413.12z"/>
 </g>
</svg>
