<?xml version="1.0" encoding="UTF-8"?>
<!DOCTYPE svg PUBLIC "-//W3C//DTD SVG 1.1//EN" "http://www.w3.org/Graphics/SVG/1.1/DTD/svg11.dtd">
<!-- Creator: CorelDRAW 2018 (64-Bit Оценочная версия) -->
<svg xmlns="http://www.w3.org/2000/svg" xml:space="preserve" width="270.933mm" height="203.2mm" version="1.1" style="shape-rendering:geometricPrecision; text-rendering:geometricPrecision; image-rendering:optimizeQuality; fill-rule:evenodd; clip-rule:evenodd"
viewBox="0 0 27093.32 20320"
 xmlns:xlink="http://www.w3.org/1999/xlink">
 <defs>
  <style type="text/css">
   <![CDATA[
    .str3 {stroke:black;stroke-width:20;stroke-miterlimit:22.9256;stroke-opacity:0.568627}
    .str1 {stroke:black;stroke-width:26.45;stroke-miterlimit:22.9256}
    .str2 {stroke:#3C3D8F;stroke-width:26.45;stroke-miterlimit:22.9256}
    .str0 {stroke:black;stroke-width:20;stroke-miterlimit:22.9256}
    .fil6 {fill:none}
    .fil2 {fill:lime}
    .fil0 {fill:aqua}
    .fil3 {fill:#468D85}
    .fil7 {fill:#666666}
    .fil1 {fill:#6699FF}
    .fil10 {fill:#CC6633}
    .fil9 {fill:#E6E6E6}
    .fil4 {fill:white}
    .fil5 {fill:#663333;fill-rule:nonzero}
    .fil8 {fill:yellow;fill-opacity:0.568627}
   ]]>
  </style>
   <mask id="id0">
  <linearGradient id="id1" gradientUnits="userSpaceOnUse" x1="21255.55" y1="3352.58" x2="23137.8" y2="3690.94">
   <stop offset="0" style="stop-opacity:1; stop-color:white"/>
   <stop offset="1" style="stop-opacity:0; stop-color:white"/>
  </linearGradient>
    <rect style="fill:url(#id1)" x="20875.91" y="2868.17" width="4079.42" height="2255.32"/>
   </mask>
   <mask id="id2">
  <linearGradient id="id3" gradientUnits="userSpaceOnUse" x1="23666.97" y1="3611.56" x2="21629.68" y2="4259.8">
   <stop offset="0" style="stop-opacity:1; stop-color:white"/>
   <stop offset="1" style="stop-opacity:0; stop-color:white"/>
  </linearGradient>
    <rect style="fill:url(#id3)" x="20240.62" y="1997.61" width="4616.98" height="2010.82"/>
   </mask>
    <clipPath id="id4">
     <path d="M5910.94 3362.02l12757.48 0 3932.27 12715.03 -12757.48 0 -3932.27 -12715.03z"/>
    </clipPath>
   <mask id="id5">
  <linearGradient id="id6" gradientUnits="userSpaceOnUse" x1="20756.55" y1="3399.9" x2="22053.01" y2="4590.52">
   <stop offset="0" style="stop-opacity:1; stop-color:white"/>
   <stop offset="1" style="stop-opacity:0; stop-color:white"/>
  </linearGradient>
    <rect style="fill:url(#id6)" x="19565.93" y="3082.41" width="2063.75" height="2354.78"/>
   </mask>
 </defs>
 <g id="Слой_x0020_1">
  <metadata id="CorelCorpID_0Corel-Layer"/>
  <ellipse class="fil0" cx="19863.59" cy="2831.04" rx="1766.09" ry="1177.4"/>
  <path class="fil0 str0" style="mask:url(#id0)" d="M22915.62 2878.17c1120.98,0 2029.71,500.39 2029.71,1117.66 0,617.27 -908.73,1117.66 -2029.71,1117.66 -1120.98,0 -2029.71,-500.39 -2029.71,-1117.66 0,-617.27 908.73,-1117.66 2029.71,-1117.66z"/>
  <path class="fil1" style="mask:url(#id2)" d="M22549.11 1997.61c-1274.94,0 -2308.49,450.14 -2308.49,1005.41 0,555.27 1033.55,1005.41 2308.49,1005.41 1274.94,0 2308.49,-450.14 2308.49,-1005.41 0,-555.27 -1033.55,-1005.41 -2308.49,-1005.41z"/>
  <g id="_2716499258480">
   <g style="clip-path:url(#id4)">
    <image x="5910.94" y="3362.02" width="16689.75" height="12715.03" xlink:href="Безымянный-3_Images\Безымянный-3_ImgID1.png"/>
   </g>
  </g>
  <polygon class="fil2 str1" points="12743.4,4845.77 15190.54,6710.55 17637.67,8575.34 16702.95,11592.63 15768.23,14609.93 12743.4,14609.93 9718.57,14609.93 8783.85,11592.63 7849.13,8575.34 10296.26,6710.55 "/>
  <g id="_2716499257584">
   <polygon class="fil3 str2" points="12743.4,5165.11 8144.29,8669.76 9905.79,14355.93 15581.01,14355.93 17342.51,8669.76 "/>
  </g>
  <g id="_2716499256624">
   <path class="fil4" d="M13934.98 8965.05c-412.29,-78.59 -831.95,-68.79 -1247.42,-68.79 -415.47,0 -835.14,-10.1 -1246.91,68.53 -358.25,68.41 -671.65,333.89 -906.34,609.02 -229.88,269.49 -376.5,531.51 -376.5,605.94 0,0 0,0 0,0 0,74.43 146.63,336.46 376.5,605.94 234.69,275.13 548.09,540.1 906.34,608.51 411.77,78.63 831.44,68.52 1246.91,68.52 415.47,0 835.13,10.34 1247.42,-68.26 357.72,-68.19 671.65,-333.38 906.34,-608.51 229.87,-269.49 377.01,-531.77 377.01,-606.2 0,0 0,0 0,0 0,-74.43 -147.14,-336.2 -377.01,-605.68 -234.69,-275.13 -548.62,-540.84 -906.34,-609.02z"/>
   <path class="fil4" d="M13934.98 8965.05c-412.29,-78.59 -831.95,-68.79 -1247.42,-68.79 -415.47,0 -835.14,-10.1 -1246.91,68.53 -358.25,68.41 -671.65,333.89 -906.34,609.02 -229.88,269.49 -376.5,531.51 -376.5,605.94 0,0 0,0 0,0 0,74.43 146.63,336.46 376.5,605.94 234.69,275.13 548.09,540.1 906.34,608.51 411.77,78.63 831.44,68.52 1246.91,68.52 415.47,0 835.13,10.34 1247.42,-68.26 357.72,-68.19 671.65,-333.38 906.34,-608.51 229.87,-269.49 377.01,-531.77 377.01,-606.2 0,0 0,0 0,0 0,-74.43 -147.14,-336.2 -377.01,-605.68 -234.69,-275.13 -548.62,-540.84 -906.34,-609.02z"/>
   <path class="fil4" d="M13934.98 8965.05c-412.29,-78.59 -831.95,-68.79 -1247.42,-68.79 -415.47,0 -835.14,-10.1 -1246.91,68.53 -358.25,68.41 -671.65,333.89 -906.34,609.02 -229.88,269.49 -376.5,531.51 -376.5,605.94 0,0 0,0 0,0 0,74.43 146.63,336.46 376.5,605.94 234.69,275.13 548.09,540.1 906.34,608.51 411.77,78.63 831.44,68.52 1246.91,68.52 415.47,0 835.13,10.34 1247.42,-68.26 357.72,-68.19 671.65,-333.38 906.34,-608.51 229.87,-269.49 377.01,-531.77 377.01,-606.2 0,0 0,0 0,0 0,-74.43 -147.14,-336.2 -377.01,-605.68 -234.69,-275.13 -548.62,-540.84 -906.34,-609.02z"/>
   <path class="fil4 str0" d="M13934.98 8965.05c-412.29,-78.59 -831.95,-68.79 -1247.42,-68.79 -415.47,0 -835.14,-10.1 -1246.91,68.53 -358.25,68.41 -671.65,333.89 -906.34,609.02 -229.88,269.49 -376.5,531.51 -376.5,605.94 0,0 0,0 0,0 0,74.43 146.63,336.46 376.5,605.94 234.69,275.13 548.09,540.1 906.34,608.51 411.77,78.63 831.44,68.52 1246.91,68.52 415.47,0 835.13,10.34 1247.42,-68.26 357.72,-68.19 671.65,-333.38 906.34,-608.51 229.87,-269.49 377.01,-531.77 377.01,-606.2 0,0 0,0 0,0 0,-74.43 -147.14,-336.2 -377.01,-605.68 -234.69,-275.13 -548.62,-540.84 -906.34,-609.02z"/>
  </g>
  <g id="_2716499272368">
   <g>
    <g>
     <path class="fil5" d="M14912.08 3827.03c12.82,-48.21 62.28,-124.61 228.25,-123.38 153.13,6.81 183.73,95.65 176.25,138.29 -12.22,46.97 -62.5,136.56 -223.97,139.32 -161.16,-12.13 -184.55,-107.19 -180.53,-154.23z"/>
     <path class="fil5" d="M14973.08 3627.84c10.13,-39.32 80.2,-98.21 211.09,-91.4 130.04,6.78 167.52,69.72 157.38,109.1 -9.64,37.42 -81.28,107.92 -211.06,102.48 -131.78,-5.52 -167.02,-82.84 -157.41,-120.18z"/>
     <path class="fil5" d="M15038.89 3461.42c10.39,-35.1 78.56,-76.02 187.96,-70.3 110.36,5.76 153.09,52.48 142.59,87.9 -10.13,34.19 -80.02,81.56 -190.54,75.87 -110.37,-5.69 -150.06,-59.58 -140.01,-93.47z"/>
     <path class="fil5" d="M15098.19 3316.57c8.08,-30.68 71.66,-62.36 163.31,-58.42 94.11,4.05 140.82,41.52 132.57,72.86 -8.17,31.07 -73.3,64.46 -167.05,59.56 -91.93,-4.8 -136.84,-43.52 -128.83,-74z"/>
     <path class="fil5" d="M15145.04 3181.04c4.18,-26.9 56.9,-56.66 137.63,-54.56 83.77,2.18 128.26,35.84 123.96,63.52 -4.3,27.64 -59.97,55.61 -141.73,52.24 -79.05,-3.27 -124.04,-34.32 -119.86,-61.2z"/>
     <path class="fil5" d="M15174.2 3037.25c0.08,-23.26 37.31,-55.97 111.36,-55.54 75.99,0.44 115.48,34.92 115.41,58.6 -0.08,24.4 -40.11,54.12 -115.68,52.51 -73.68,-1.56 -111.18,-31.66 -111.09,-55.57z"/>
     <path class="fil5" d="M15179.96 2869.74c-2.93,-19.28 16.56,-57.83 83.78,-58.73 69.37,-0.94 102.09,37.5 105.09,57.29 3.08,20.35 -18.96,55.14 -87.96,55.24 -67.09,0.1 -97.92,-34.1 -100.91,-53.8z"/>
     <path class="fil5" d="M15151.46 2662.76c-4.39,-15.48 -0.38,-58.74 58.48,-60.48 60.66,-1.8 90.08,40.64 94.59,56.53 4.62,16.26 -1.45,55.24 -62.38,56.57 -59.2,1.29 -86.19,-36.78 -90.69,-52.62z"/>
     <path class="fil5" d="M15192.22 2373.32c7.8,-9.45 27.75,-0.13 59.97,1.87 21.92,1.01 63.75,-3.98 55.92,9.07 -6.28,10.45 -45.4,29.42 -78.94,26.1 -32.09,-3.17 -42.89,-27.19 -36.95,-37.04z"/>
     <path class="fil5" d="M15220.45 3838.39c12.87,-48.22 62.82,-122.44 227.79,-121.04 152.02,6.76 183,93.36 175.56,135.91 -12.21,46.74 -62.17,134.19 -222.46,136.81 -162.31,-12.03 -184.89,-104.27 -180.89,-151.68z"/>
     <path class="fil5" d="M15280.71 3642.62c10.18,-39.48 80.04,-96.97 210.76,-90.17 128.31,6.69 166.59,68.82 156.54,107.82 -9.56,37.12 -81.26,106.05 -209.43,100.68 -131.81,-5.53 -167.55,-80.71 -157.87,-118.33z"/>
     <path class="fil5" d="M15344.91 3477.72c10.4,-35.14 79.96,-76.26 189.22,-70.55 109.54,5.73 152.92,53.09 142.5,88.22 -10.08,34.03 -80.69,80.98 -190.38,75.33 -110.25,-5.68 -151.45,-58.92 -141.34,-93z"/>
     <path class="fil5" d="M15404.6 3331.52c8.15,-31 71.43,-64.14 164.9,-60.12 95.34,4.1 140.38,43.28 132.16,74.61 -8.22,31.2 -72.5,65.57 -167.36,60.61 -93.66,-4.89 -137.84,-44.18 -129.7,-75.1z"/>
     <path class="fil5" d="M15453.55 3191.61c4.2,-26.98 55.3,-59.24 137.95,-57.09 85,2.22 126.72,38.6 122.45,66 -4.26,27.45 -57.85,57.85 -140.93,54.43 -81.01,-3.35 -123.68,-36.31 -119.47,-63.34z"/>
     <path class="fil5" d="M15483.21 3041.43c0.08,-23.28 35.66,-58.37 111.3,-57.93 77.57,0.45 114.38,37.43 114.28,60.98 -0.06,24.26 -37.29,56.54 -114.56,54.9 -75.38,-1.6 -111.1,-34.01 -111.02,-57.95z"/>
     <path class="fil5" d="M15487.32 2867.39c-2.98,-19.61 15.71,-59.61 84.64,-60.54 70.19,-0.95 102.41,39.34 105.4,59.09 3.06,20.15 -17.61,57.04 -87.72,57.15 -68.81,0.1 -99.29,-35.69 -102.32,-55.7z"/>
     <path class="fil5" d="M15457.61 2654.86c-4.44,-15.6 -0.12,-59.92 59.3,-61.68 60.16,-1.78 90.48,42.04 94.94,57.7 4.55,16 -1.6,56.48 -62.05,57.8 -59.74,1.3 -87.65,-37.87 -92.19,-53.82z"/>
     <path class="fil5" d="M15492.84 2401.68c8.13,-13.51 34.71,-13.8 67.13,-12.3 38.08,1.76 57.66,8.46 48.78,23.24 -6.76,11.22 -40.58,31.3 -78.62,27.53 -37.1,-3.67 -43.95,-27.39 -37.29,-38.47z"/>
     <path class="fil5" d="M15522.96 3849.55c13.06,-48.39 64.44,-120.18 228.5,-118.72 151.02,6.72 183.48,91.02 176.02,133.63 -12.26,46.66 -62.77,131.78 -222.09,134.3 -161.57,-11.86 -186.33,-101.74 -182.43,-149.21z"/>
     <path class="fil5" d="M15583.67 3657.18c10.09,-39.2 80.16,-95.75 210.43,-88.96 127.36,6.64 166.9,67.65 156.87,106.6 -9.58,37.18 -81.59,104.19 -209.02,98.85 -131.01,-5.5 -167.97,-78.82 -158.28,-116.49z"/>
     <path class="fil5" d="M15647.43 3493.83c10.38,-35.04 80.16,-76.55 189.32,-70.84 109.45,5.72 152.79,53.47 142.42,88.52 -10.11,34.09 -80.67,80.45 -190.24,74.8 -110.15,-5.67 -151.62,-58.32 -141.5,-92.48z"/>
     <path class="fil5" d="M15707.49 3346.3c8.17,-30.99 70.7,-65.93 165.34,-61.86 95.81,4.11 138.71,45.32 130.55,76.3 -8.15,30.97 -71.2,66.68 -166.47,61.7 -94.74,-4.95 -137.58,-45.1 -129.42,-76.14z"/>
     <path class="fil5" d="M15756.18 3201.97c4.26,-27.35 54.37,-61.74 139.44,-59.53 86.72,2.27 126.42,41.06 122.14,68.49 -4.28,27.54 -56.45,60.03 -141.31,56.53 -83.45,-3.44 -124.54,-38.02 -120.27,-65.49z"/>
     <path class="fil5" d="M15786.35 3045.53c0.08,-23.55 35.71,-60.71 112.4,-60.27 79.04,0.46 114.45,39.8 114.36,63.34 -0.08,24.25 -35.86,58.91 -114.64,57.24 -77.19,-1.64 -112.2,-36.36 -112.12,-60.31z"/>
     <path class="fil5" d="M15791.15 2865.07c-2.98,-19.58 14.64,-61.38 84.33,-62.32 70.17,-0.95 102.76,41.37 105.72,60.87 3.02,19.87 -17.34,58.92 -87.49,59.02 -69.59,0.1 -99.53,-37.62 -102.56,-57.57z"/>
     <path class="fil5" d="M15760.25 2647.05c-4.49,-15.78 -1.6,-61.04 58.96,-62.83 60.23,-1.79 89.71,43.4 94.12,58.88 4.49,15.8 -0.02,57.67 -60.57,58.98 -60.86,1.33 -87.92,-38.92 -92.51,-55.03z"/>
     <path class="fil5" d="M15790.03 2429.73c7.41,-12.32 32.96,-28.22 73.05,-26.38 44.67,2.06 50.34,24.85 42.86,37.31 -7.1,11.79 -38.2,32.92 -79.43,28.84 -41.24,-4.09 -43.62,-27.89 -36.48,-39.77z"/>
     <path class="fil5" d="M15826.64 3860.74c13.06,-47.97 64.84,-117.98 226.87,-116.47 150.13,6.67 185.15,88.57 177.65,131.39 -12.42,46.69 -64.39,129.38 -222.89,131.75 -159.64,-11.68 -185.42,-99.6 -181.63,-146.67z"/>
     <path class="fil5" d="M15885.46 3671.68c10.09,-39.21 82.03,-94.43 210.09,-87.75 127.62,6.64 167.22,66.51 157.2,105.39 -9.64,37.44 -81.16,102.36 -208.58,97.02 -129.43,-5.43 -168.36,-77.15 -158.71,-114.66z"/>
     <path class="fil5" d="M15949.95 3509.95c10.32,-34.83 79.12,-76.91 188.25,-71.21 110.09,5.76 152.73,53.66 142.31,88.82 -10.18,34.38 -79.91,79.96 -190.06,74.29 -110.05,-5.67 -150.59,-57.8 -140.5,-91.9z"/>
     <path class="fil5" d="M16010.4 3361.08c8.05,-30.64 69.51,-67.74 164.56,-63.66 97.57,4.2 139.55,46.82 131.32,78.1 -8.27,31.4 -70.95,67.74 -167.93,62.67 -95.12,-4.97 -136.06,-46.29 -127.95,-77.11z"/>
     <path class="fil5" d="M16059.99 3212.38c4.2,-26.89 52.24,-64.29 138.58,-62.04 89.43,2.33 127.3,43.41 123.01,70.99 -4.35,27.94 -55.65,62.2 -142.87,58.6 -84.5,-3.48 -122.95,-40.33 -118.72,-67.55z"/>
     <path class="fil5" d="M16090.67 3049.65c0.07,-23.26 32.93,-63.08 111.17,-62.63 79.93,0.46 115.66,41.85 115.58,65.7 -0.08,24.36 -35.68,61.25 -115.89,59.55 -78.31,-1.66 -110.95,-38.69 -110.86,-62.62z"/>
     <path class="fil5" d="M16093.82 2862.77c-2.93,-19.34 14.44,-63.16 84.01,-64.1 71.69,-0.98 103.04,42.97 106.03,62.65 3.03,20.01 -15.58,60.77 -87.23,60.88 -69.55,0.1 -99.83,-39.77 -102.81,-59.43z"/>
     <path class="fil5" d="M16062.88 2639.24c-4.37,-15.4 -2.3,-62.18 57.45,-63.95 61.62,-1.83 91.13,44.19 95.63,60 4.59,16.12 0.51,58.87 -61.4,60.22 -60.1,1.31 -87.2,-40.57 -91.68,-56.27z"/>
     <path class="fil5" d="M16087.23 2457.76c6.47,-10.75 38.09,-42.32 77.78,-40.48 47.92,2.21 45.05,39.91 38.12,51.42 -7.82,13 -35.4,34.58 -81.38,30.02 -44.24,-4.38 -41.93,-28.61 -34.52,-40.96z"/>
     <path class="fil5" d="M16125.63 3871.77c7.55,-43.1 74.07,-121 226.41,-114.23 149.05,6.63 185.61,86.26 178.12,129.14 -12.49,46.59 -65.08,127.03 -222.54,129.27 -159.32,-11.45 -185.75,-97.02 -181.99,-144.18z"/>
     <path class="fil5" d="M16183.73 3686c10.03,-38.88 82.16,-93.2 209.79,-86.55 126.61,6.59 167.51,65.37 157.51,104.2 -9.65,37.49 -81.55,100.53 -208.17,95.22 -128.59,-5.4 -168.79,-75.29 -159.13,-112.87z"/>
     <path class="fil5" d="M16247.81 3525.82c10.3,-34.75 79.29,-77.2 188.33,-71.5 109.25,5.71 152.56,54.24 142.22,89.11 -10.13,34.22 -80.59,79.4 -189.91,73.77 -109.93,-5.66 -150.76,-57.22 -140.64,-91.38z"/>
     <path class="fil5" d="M16308.62 3375.63c8.01,-30.44 68.55,-69.51 164.98,-65.37 98.59,4.24 139.12,48.57 130.9,79.81 -8.29,31.49 -70.22,68.81 -168.2,63.69 -96.12,-5.03 -135.82,-47.21 -127.68,-78.13z"/>
     <path class="fil5" d="M16359.13 3222.62c4.18,-26.87 51,-66.77 138.87,-64.48 90.98,2.38 127,45.89 122.7,73.44 -4.35,27.99 -54.45,64.34 -143.25,60.68 -86.38,-3.57 -122.56,-42.5 -118.32,-69.64z"/>
     <path class="fil5" d="M16390.28 3053.7c0.08,-23.23 31.69,-65.41 111.11,-64.94 81.13,0.46 115.73,44.19 115.65,68.01 -0.08,24.33 -34.45,63.59 -115.96,61.86 -79.81,-1.7 -110.88,-41.16 -110.8,-64.93z"/>
     <path class="fil5" d="M16392.96 2860.48c-2.92,-19.29 13.51,-64.9 83.71,-65.85 72.34,-0.98 103.35,44.77 106.33,64.4 3.03,19.94 -14.65,62.62 -86.99,62.72 -70.21,0.11 -100.08,-41.67 -103.05,-61.27z"/>
     <path class="fil5" d="M16360.86 2631.56c-4.38,-15.39 -2.93,-63.31 57.1,-65.09 61.9,-1.83 91.47,45.35 95.97,61.14 4.57,16.07 1.11,60.05 -61.08,61.41 -60.36,1.31 -87.55,-41.81 -91.99,-57.46z"/>
     <path class="fil5" d="M16379.84 2485.37c6.25,-10.41 45.18,-56.11 83.59,-54.34 50.49,6.23 39.6,51.13 32.3,65.28 -8.28,13.76 -32.36,36.23 -82.16,31.31 -48.02,-4.76 -41.6,-29.18 -33.73,-42.25z"/>
    </g>
   </g>
  </g>
  <path class="fil6" d="M15700.7 3998.62c72.14,-633.9 333.16,-750.8 100.18,-1456.79 -14.68,-44.47 47.22,-96.34 57.52,-138.69"/>
  <path class="fil7 str0" d="M14750.51 4008.44c325.41,4.2 651.03,8.02 976.44,11.82 325.41,3.82 651.24,7.63 976.86,11.44 -9.77,631.56 -19.36,1263.49 -28.92,1894.68 -9.56,631.16 -19.13,1262.73 -28.51,1893.52 -300.22,-228.3 -600.6,-457.41 -900.47,-686.06 -299.98,-228.72 -600.26,-457.37 -900.09,-685.68 -16.02,-406.3 -31.76,-812.99 -47.66,-1219.28 -15.92,-406.69 -31.83,-813.37 -47.65,-1220.44z"/>
  <path class="fil8 str3" d="M5066.76 2235.73c1315.12,0 2381.24,935.81 2381.24,2090.2 0,1154.4 -1066.12,2090.21 -2381.24,2090.21 -1315.12,0 -2381.24,-935.81 -2381.24,-2090.21 0,-1154.39 1066.12,-2090.2 2381.24,-2090.2z"/>
  <path class="fil9" style="mask:url(#id5)" d="M20597.8 5437.19c569.89,0 1031.88,-527.14 1031.88,-1177.39 0,-650.25 -461.99,-1177.39 -1031.88,-1177.39 -569.88,0 -1031.87,527.14 -1031.87,1177.39 0,650.25 461.99,1177.39 1031.87,1177.39z"/>
  <polygon class="fil10 str0" points="29937.59,14062.6 29949.05,14052.68 29960.5,14042.76 29937.59,14042.76 29914.68,14042.76 29926.13,14052.68 "/>
  <polygon class="fil2 str0" points="24313.1,13592.39 25308.59,14251.23 22387.09,14249.24 19465.59,14247.25 20447.61,13589.77 20021.05,13589.48 20848.56,12917.83 20285.02,12917.45 21110.66,12135.79 20713.67,12135.52 21420.91,11337.49 21285.72,11337.4 21876.87,10617.16 22468.04,9896.93 23073.94,10617.97 23679.84,11339.03 23434.59,11338.86 24158.16,12137.86 23741.7,12137.58 24583.35,12920.37 24081.45,12920.03 24922.71,13592.81 "/>
 </g>
</svg>
